<?xml version="1.0" encoding="UTF-8"?><!DOCTYPE svg PUBLIC "-//W3C//DTD SVG 1.1//EN" "http://www.w3.org/Graphics/SVG/1.1/DTD/svg11.dtd"><svg xmlns="http://www.w3.org/2000/svg"><symbol id="icon-call" viewBox="0 0 24 24">
    <title/>
    <g fill-rule="evenodd">
        <path d="M7 3.003v18.028c0 2.003 2 2.003 2 2.003h7s2 0 2-2.003V3.003C18 1 16 1 16 1H9S7 1 7 3.003zM8 3.5v16h9v-16H8zm4.5 18.7a1 1 0 1 0 0-2 1 1 0 0 0 0 2zM11.133 2c-.074 0-.133.097-.133.221v.059c0 .122.06.22.133.22h2.734c.074 0 .133-.096.133-.22V2.22C14 2.1 13.94 2 13.867 2h-2.734z"/>
    </g>
</symbol><symbol id="icon-email" viewBox="0 0 16 16">
    <path d="M0 4v10h16V4L8 9z"/>
    <path d="M0 3l8 5 8-5V2H0z"/>
</symbol><symbol id="icon-facebook" viewBox="0 0 10 19">
    <title>
        facebook
    </title>
    <path d="M9.766.157v2.946H8.014c-.64 0-1.071.134-1.295.402-.223.268-.335.67-.335 1.205v2.11h3.27l-.435 3.303H6.384v8.471H2.97v-8.47H.123V6.82H2.97V4.387c0-1.384.387-2.457 1.161-3.22C4.904.404 5.934.023 7.222.023c1.093 0 1.941.045 2.544.134z" fill-rule="evenodd"/>
</symbol><symbol id="icon-google" viewBox="0 0 56.693 56.693">
    <path d="M52.218 25.852h-7.512v-7.51c0-.573-.465-1.039-1.037-1.039H41.53a1.04 1.04 0 0 0-1.041 1.039v7.51h-7.512c-.572 0-1.039.467-1.039 1.041v2.139a1.04 1.04 0 0 0 1.039 1.039h7.512v7.514a1.04 1.04 0 0 0 1.041 1.039h2.139c.572 0 1.037-.465 1.037-1.039V30.07h7.512a1.04 1.04 0 0 0 1.039-1.039v-2.139a1.04 1.04 0 0 0-1.039-1.04z"/>
    <path d="M26.974 32.438c-1.58-1.119-3.016-2.76-3.041-3.264 0-.918.082-1.357 2.141-2.961 2.662-2.084 4.128-4.824 4.128-7.719 0-2.625-.802-4.957-2.167-6.595h1.059c.219 0 .434-.068.609-.196l2.955-2.141c.367-.263.521-.732.381-1.161a1.042 1.042 0 0 0-.988-.72H18.835c-1.446 0-2.915.255-4.357.751-4.816 1.661-8.184 5.765-8.184 9.978 0 5.969 4.624 10.493 10.805 10.635a5.623 5.623 0 0 0-.182 1.396c0 .92.233 1.791.713 2.633h-.17c-5.892 0-11.21 2.891-13.229 7.193-.526 1.119-.794 2.25-.794 3.367a6.33 6.33 0 0 0 .826 3.113c1.269 2.27 3.994 4.031 7.677 4.961 1.901.48 3.944.725 6.065.725 1.906 0 3.723-.246 5.403-.732 5.238-1.521 8.625-5.377 8.625-9.828-.001-4.271-1.374-6.828-5.059-9.435zm-16.691 9.777c0-3.107 3.947-5.832 8.446-5.832h.121c.979.012 1.934.156 2.834.432.309.213.607.416.893.611 2.084 1.42 3.461 2.357 3.844 3.861.09.379.135.758.135 1.125 0 3.869-2.885 5.83-8.578 5.83-4.315 0-7.695-2.646-7.695-6.027zm4.094-29.357c.703-.803 1.624-1.227 2.658-1.227l.117.002c2.921.086 5.716 3.341 6.23 7.256.289 2.192-.199 4.253-1.301 5.509-.705.805-1.613 1.229-2.689 1.229h-.049c-2.861-.088-5.716-3.467-6.227-7.377-.287-2.186.173-4.151 1.261-5.392z"/>
</symbol><symbol id="icon-pinterest" viewBox="0 0 1792 1792">
    <path d="M256 597q0-108 37.5-203.5T397 227t152-123 185-78T936 0q158 0 294 66.5T1451 260t85 287q0 96-19 188t-60 177-100 149.5-145 103-189 38.5q-68 0-135-32t-96-88q-10 39-28 112.5t-23.5 95-20.5 71-26 71-32 62.5-46 77.5-62 86.5l-14 5-9-10q-15-157-15-188 0-92 21.5-206.5T604 972t52-203q-32-65-32-169 0-83 52-156t132-73q61 0 95 40.5T937 514q0 66-44 191t-44 187q0 63 45 104.5t109 41.5q55 0 102-25t78.5-68 56-95 38-110.5 20-111 6.5-99.5q0-173-109.5-269.5T909 163q-200 0-334 129.5T441 621q0 44 12.5 85t27 65 27 45.5T520 847q0 28-15 73t-37 45q-2 0-17-3-51-15-90.5-56t-61-94.5-32.5-108T256 597z"/>
</symbol><symbol id="icon-twiter" viewBox="0 0 211.405 175.0664">
    <path d="M209.647 20.455a4.006 4.006 0 0 0-4.658.123c-1.795 1.361-4.717 2.441-7.862 3.273 8.19-9.175 8.366-15.302 8.278-16.713a4 4 0 0 0-6.344-2.984c-9.21 6.696-18.386 8.11-23.844 8.252C166.843 4.392 155.963 0 144.39 0c-24.783 0-44.945 20.432-44.945 45.545 0 2.158.15 4.316.451 6.451-42.951-.486-77.83-41.64-78.19-42.07a4 4 0 0 0-6.537.564c-12.36 21.444-4.09 40.278 3.471 51.06-1.338-.712-2.422-1.415-3.068-1.892a4.004 4.004 0 0 0-4.154-.38 4.004 4.004 0 0 0-2.235 3.524C8.848 83.234 18.684 94.94 27.93 101.41a4.033 4.033 0 0 0-3.34 1.272 4.002 4.002 0 0 0-.884 3.876c6.387 20.909 22.072 28.012 32.053 30.422-20.522 15.975-50.72 10.834-51.053 10.776a4.001 4.001 0 0 0-3.133 7.117c21.66 16.531 47.566 20.193 66.281 20.193 14.155-.002 24.2-2.098 25.16-2.306 94.791-22.463 97.46-109.292 97.243-123.522 17.794-16.549 20.576-22.852 21.005-24.41a4.002 4.002 0 0 0-1.615-4.373zm-26.152 24.14a4.007 4.007 0 0 0-1.282 3.211c.252 3.842 5.1 94.387-90.968 117.153-.436.092-38.623 8.06-71.729-8.34 13.987-.389 34.043-4.053 48.016-19.74a4 4 0 1 0-2.986-6.66h-.041c-.2.127-21.206-.024-30.82-20.006 3.872.219 8.648-.02 12.45-1.772a4 4 0 0 0-.851-7.547c-1.076-.226-24.459-5.455-27.73-30.964 3.548 1.55 8.085 2.82 12.577 2.134a3.998 3.998 0 0 0 3.243-2.84 4.005 4.005 0 0 0-1.219-4.138c-1-.871-22.961-20.389-12.549-45.559C30.91 31.387 64.391 62.21 104.954 59.88a4.004 4.004 0 0 0 3.648-4.969 38.518 38.518 0 0 1-1.158-9.365C107.444 24.842 124.018 8 144.389 8c9.965 0 19.313 3.976 26.317 11.2a4 4 0 0 0 2.803 1.214c4.238.058 11.208-.44 19.08-3.596-2.272 2.826-5.608 6.217-10.516 10.07a4.003 4.003 0 0 0-1.254 4.604c.644 1.646 2.307 2.686 4.045 2.53.931-.075 5.685-.495 11.057-1.657-2.926 3.156-6.938 7.182-12.426 12.23z"/>
</symbol></svg>